<svg width="485" height="707" xmlns="http://www.w3.org/2000/svg" fill="none">
 <g>
  <path stroke="null" id="svg_1" fill="#804627" fill-opacity="0.03" d="m194.6752,705.63111c-70.99487,-16.54647 -140.89837,-71.69954 -170.38877,-135.12584c-23.48327,-50.19022 -25.66763,-74.45728 -23.48327,-238.26221c1.63841,-145.05336 2.18454,-155.53315 14.19915,-185.31607c33.85948,-86.03926 111.40852,-139.53805 210.25574,-146.15646c126.15471,-8.27305 229.91679,65.6325 254.49287,180.90368c4.36872,20.40585 6.00677,79.42013 4.91413,184.76342c-2.18346,146.70764 -2.72887,155.53169 -14.74421,186.41771c-25.1215,63.4263 -85.74179,121.88976 -146.90749,141.19398c-42.05097,13.7869 -97.2081,18.75157 -128.33817,11.5818zm-12.01353,-43.57127c-58.4352,-20.40768 -102.12494,-59.5651 -127.79257,-115.82163c-12.56075,-27.57745 -14.74529,-38.60843 -15.83738,-102.58555l-1.63841,-71.69954l12.56075,15.99382c6.55344,9.3767 24.57536,31.43865 39.86679,49.08676c94.47887,113.06389 124.5163,161.59983 130.52307,211.79005c3.27609,27.0248 2.73068,27.0248 -37.68225,13.23608zm81.37126,4.41203c-6.00677,-10.47834 18.56932,-79.97277 40.41292,-113.61653c12.01534,-18.75157 38.77488,-53.49879 59.52766,-77.2132c20.75278,-23.71624 46.96691,-55.70571 58.43502,-70.5979c11.46812,-15.44301 21.8436,-29.22991 22.93623,-30.33337c1.63804,-1.65428 2.18526,29.23173 1.09263,68.94179c-1.63804,65.08059 -3.27609,74.45728 -17.47669,105.89411c-16.38225,35.84886 -57.88781,81.07624 -90.1087,97.07006c-28.94481,15.44301 -71.54119,26.47398 -74.81908,19.85503zm-59.52766,-144.50254c-7.64481,-12.68526 -34.95085,-47.9833 -60.61848,-78.31667c-79.73358,-93.20885 -105.94734,-143.39908 -105.94734,-200.75907c0,-72.25072 70.44946,-121.33712 130.52271,-90.45129c24.575,12.13371 41.50447,43.57145 50.24372,91.00393l6.55218,38.05578l-33.85894,33.64193l-33.31317,34.1964l32.76775,34.74539l32.76631,34.74722l-2.73068,63.4263l-2.73068,63.4263l-13.65338,-23.71624zm-106.49258,-254.25604c-16.3837,-18.75339 -14.74529,-49.63758 3.27663,-63.97895c31.67512,-24.81843 73.18013,-6.06631 73.18013,33.64376c0,38.60843 -51.8814,59.01428 -76.45676,30.33519zm163.83677,212.89169l0,-65.08059l32.76631,-33.09294l32.76811,-32.54029l-33.86075,-34.19458l-33.31353,-34.19458l6.00857,-34.74722c3.27609,-19.30421 12.01353,-45.7782 18.56751,-59.01428c41.50555,-81.62705 162.19711,-43.01972 162.19711,51.84451c0.54722,59.5651 -26.21232,112.51307 -97.75532,194.69094c-21.29819,24.8197 -49.69578,60.11774 -62.80374,78.31849l-24.57428,33.09111l0,-65.08059zm60.07307,-214.54597c-15.29143,-19.85503 -14.19879,-43.57127 2.18346,-60.11774c28.39939,-28.67982 74.27367,-9.3767 74.27367,31.43683c0,39.71006 -53.52089,59.56692 -76.45713,28.68091zm-96.11727,98.1717l-13.65338,-15.44301l15.83684,-14.89036l15.29143,-14.89219l14.74601,16.54647l14.74421,17.09729l-16.38225,13.78872l-16.38406,13.78872l-14.19879,-15.99565zm-7.64662,-221.16438c0,-2.75774 -12.01353,-12.13389 -25.66691,-20.40676c-27.30622,-15.99455 -69.35755,-20.40676 -102.67089,-11.0308l-16.3837,4.41239l19.11437,-19.85521c22.39082,-23.71606 74.81836,-50.74123 107.58503,-56.25653l23.48345,-3.30929l0,55.70498c0,30.88601 -1.63804,56.25653 -2.73068,56.25653c-1.63804,0 -2.73068,-2.75774 -2.73068,-5.51531zm43.69082,-50.74123l0,-55.70498l22.93623,3.30929c32.76811,5.51531 85.19457,32.54048 108.13261,56.25653l19.11293,19.85521l-16.38225,-4.41239c-44.23623,-12.13371 -96.66449,-1.1031 -122.87862,25.92207c-10.9209,11.0308 -10.9209,11.0308 -10.9209,-45.22574z" clip-rule="evenodd" fill-rule="evenodd"/>
 </g>
</svg>
